<svg viewBox="0 0 184 65" preserveAspectRatio="xMidYMid meet" fill="none" xmlns="http://www.w3.org/2000/svg">
<rect x="31.6245" y="2.08344" width="19.5522" height="61.6841" fill="#157AD2" stroke="#073572"/>
<rect x="51.1489" y="2.08344" width="81.2087" height="61.6841" fill="#157AD2" stroke="#073572"/>
<rect x="59.3699" y="7.2215" width="63.7394" height="34.9663" fill="#D9D9D9" stroke="#073572"/>
<path d="M59.3837 26.246H123.095M75.8254 41.6602V6.20767M107.681 42.174V6.72148M91.7534 42.174V6.72148" stroke="#073572"/>
<path d="M34.2073 45.2568V13.9148L46.5386 9.80435V42.6878L34.2073 45.2568Z" fill="#D9D9D9" stroke="#073572"/>
<path d="M46.5386 27.2737L34.2073 30.3565M36.7763 44.2292V24.1908M41.4005 43.2016V22.6494" stroke="#073572"/>
<rect x="132.33" y="2.08344" width="20.5798" height="61.6841" fill="#157AD2" stroke="#073572"/>
<path d="M150.327 45.2568V13.9147L137.996 9.80432V42.6878L150.327 45.2568Z" fill="#D9D9D9" stroke="#073572"/>
<path d="M137.996 27.7874L150.327 30.8703M147.758 44.743V24.1908M143.134 43.7154V23.1632" stroke="#073572"/>
<rect x="49.0939" y="46.2706" width="85.3192" height="14.4141" fill="#0F4E86" stroke="#073572"/>
<path d="M25.4589 60.6847V50.3016L48.0939 46.3651V60.6847H25.4589Z" fill="#0F4E86" stroke="#073572"/>
<path d="M158.048 50.3016V60.6847H135.413V46.3651L158.048 50.3016Z" fill="#0F4E86" stroke="#073572"/>
<path d="M44.9818 21.8034L52.0705 1.08392H130.939L137.206 21.7557C118.133 25.1458 98.515 26.0793 81.8979 25.6924C65.5156 25.3109 52.0849 23.6468 44.9818 21.8034Z" fill="#E98FD5" stroke="#073572"/>
<path d="M0.926231 22.0145L28.5752 1.08392H51.878L45.5319 21.5915C37.0987 24.6397 27.0622 25.9005 18.4988 25.7642C14.1793 25.6955 10.2506 25.2714 7.10399 24.5493C4.28207 23.9017 2.15915 23.0296 0.926231 22.0145Z" fill="#E98FD5" stroke="#073572"/>
<path d="M51.5285 2.63913V23.1913M47.4181 15.4842V22.1637M49.4733 8.80478V22.6775" stroke="#073572"/>
<path d="M57.6942 0.583923V24.2189M53.5837 0.583923V23.1913M55.639 0.583923V23.7051M63.8598 0.583923V24.7327M59.7494 0.583923V24.2189M61.8046 0.583923V24.2189" stroke="#073572"/>
<path d="M70.0255 0.583923V25.2465M65.915 0.583923V24.7327M67.9703 0.583923V24.7327M76.1911 0.583923V25.7603M72.0807 0.583923V25.2465M74.1359 0.583923V25.2465" stroke="#073572"/>
<path d="M82.3568 0.583923V25.7603M78.2463 0.583923V25.7603M80.3016 0.583923V25.7603M88.5224 0.583923V25.7603M84.412 0.583923V25.7603M86.4672 0.583923V25.7603" stroke="#073572"/>
<path d="M94.6881 0.583923V25.7603M90.5776 0.583923V25.7603M92.6329 0.583923V25.7603M100.854 0.583923V25.7603M96.7433 0.583923V25.7603M98.7985 0.583923V25.7603" stroke="#073572"/>
<path d="M107.019 0.583923V25.2465M102.909 0.583923V25.2465M104.964 0.583923V25.2465M113.185 0.583923V24.7327M109.075 0.583923V25.2465M111.13 0.583923V24.7327" stroke="#073572"/>
<path d="M119.351 0.583923V24.2189M115.24 0.583923V24.7327M117.296 0.583923V24.2189M125.516 0.583923V23.7051M121.406 0.583923V24.2189M123.461 0.583923V23.7051" stroke="#073572"/>
<path d="M131.682 0.583923V22.6775M127.572 0.583923V23.1913M129.627 0.583923V23.1913M133.737 9.8324V22.6775M135.792 16.5119V22.1637" stroke="#073572"/>
<path d="M5.83436 18.3053L3.74331 23.7051M2.94904 20.3891L1.98853 22.6775M14.891 11.4126L9.84169 25.0377M9.04021 15.8207L5.90137 24.219M11.9255 13.7769L7.79792 25.0377M22.7054 5.5217L16.2134 25.7189M17.6561 9.3688L11.9255 25.7189M20.0605 7.5254L13.9693 25.7189M30.4797 1.11359L22.5852 25.7189M25.5107 3.3978L18.3774 25.7189M28.3959 1.11359L20.4212 25.7189M36.8916 1.11355L29.1573 25.238M32.6437 1.11359L24.7492 25.7189M34.7676 1.11359L26.9132 25.7189M43.5038 1.0978L36.0501 24.2362M39.1959 1.08301L31.3615 24.9174M41.2511 1.09771L33.6457 24.6369M49.6498 1.0978L43.1031 22.3928M45.5877 1.0978L38.3343 23.7954M47.5112 1.0978L40.7373 23.1913" stroke="#073572"/>
<path d="M182.58 21.9864L154.931 1.05585H131.628L137.974 21.5634C146.408 24.6116 156.444 25.8725 165.007 25.7361C169.327 25.6674 173.256 25.2433 176.402 24.5212C179.224 23.8736 181.347 23.0015 182.58 21.9864Z" fill="#E98FD5" stroke="#073572"/>
<path d="M177.672 18.2771L179.763 23.677M180.557 20.361L181.518 22.6494M168.615 11.3844L173.665 25.0095M174.466 15.7925L177.605 24.1908M171.581 13.7488L175.708 25.0095M160.801 5.49357L167.293 25.6908M165.85 9.34066L171.581 25.6908M163.446 7.49726L169.537 25.6908M153.027 1.08545L160.921 25.6908M157.996 3.36966L165.129 25.6908M155.11 1.08545L163.085 25.6908M146.615 1.08542L154.349 25.2099M150.863 1.08545L158.757 25.6908M148.739 1.08545L156.593 25.6908M140.003 1.06966L147.456 24.208M144.31 1.05487L152.145 24.8893M142.255 1.06957L149.861 24.6088M133.857 1.06966L140.403 22.3647M137.919 1.06966L145.172 23.7672M135.995 1.06966L142.769 23.1632" stroke="#073572"/>
<path d="M25.9976 57.2326H157.605" stroke="#073572"/>
</svg>
