<svg viewBox="0 0 126 114" preserveAspectRatio="xMidYMid meet" fill="none" xmlns="http://www.w3.org/2000/svg">
<rect x="1.2749" y="1.16165" width="123.401" height="12.2398" fill="#1F5A8E" stroke="#073572"/>
<rect x="0.878052" y="50.9888" width="123.401" height="12.2398" fill="#1F5A8E" stroke="#073572"/>
<rect x="4.35779" y="13.3738" width="117.806" height="37.6426" fill="#4C8ECA" stroke="#073572"/>
<rect x="1.50171" y="100.816" width="123.401" height="12.2398" fill="#1F5A8E" stroke="#073572"/>
<rect x="4.98145" y="63.201" width="117.806" height="37.6426" fill="#4C8ECA" stroke="#073572"/>
<rect x="12.4589" y="20.1736" width="6.3695" height="11.4074" rx="2.5" fill="#FE0779" stroke="#073572"/>
<rect x="37.152" y="20.1736" width="6.3695" height="11.4074" rx="2.5" fill="#FE0779" stroke="#073572"/>
<path d="M27.6978 13.9015C27.6978 17.1524 22.5007 19.7878 16.0896 19.7878C9.67861 19.7878 4.48145 17.1524 4.48145 13.9015" stroke="#073572"/>
<rect x="60.4701" y="20.2878" width="6.3695" height="11.4074" rx="2.5" fill="#FE0779" stroke="#073572"/>
<rect x="83.0852" y="20.2878" width="6.3695" height="11.4074" rx="2.5" fill="#FE0779" stroke="#073572"/>
<rect x="107.062" y="20.1736" width="6.3695" height="11.4074" rx="2.5" fill="#FE0779" stroke="#073572"/>
<path d="M51.4152 13.9015C51.4152 17.1524 46.2181 19.7878 39.807 19.7878C33.396 19.7878 28.1989 17.1524 28.1989 13.9015" stroke="#073572"/>
<path d="M74.9548 13.9015C74.9548 17.1524 69.7577 19.7878 63.3467 19.7878C56.9356 19.7878 51.7385 17.1524 51.7385 13.9015" stroke="#073572"/>
<path d="M98.494 13.9015C98.494 17.1524 93.2969 19.7878 86.8858 19.7878C80.4748 19.7878 75.2776 17.1524 75.2776 13.9015" stroke="#073572"/>
<path d="M122.033 13.9015C122.033 17.1524 116.836 19.7878 110.425 19.7878C104.014 19.7878 98.8164 17.1524 98.8164 13.9015" stroke="#073572"/>
<rect x="10.7743" y="35.3305" width="10.115" height="12.3589" fill="#82F3F9" stroke="#073572"/>
<rect x="11.3699" y="70.0007" width="29.9291" height="30.843" fill="#1F5A8E" stroke="#073572"/>
<rect x="13.2268" y="71.8688" width="26.2373" height="28.9749" fill="#82F3F9" stroke="#073572"/>
<rect x="49.2409" y="70.0007" width="29.9291" height="30.843" fill="#1F5A8E" stroke="#073572"/>
<rect x="51.0978" y="71.8687" width="26.2373" height="28.9749" fill="#82F3F9" stroke="#073572"/>
<rect x="86.1384" y="70.0007" width="29.9291" height="30.843" fill="#1F5A8E" stroke="#073572"/>
<rect x="87.9953" y="71.8687" width="26.2373" height="28.9749" fill="#82F3F9" stroke="#073572"/>
<rect x="29.8286" y="35.3305" width="10.115" height="12.3589" fill="#82F3F9" stroke="#073572"/>
<rect x="48.8829" y="35.3305" width="10.115" height="12.3589" fill="#82F3F9" stroke="#073572"/>
<rect x="67.9373" y="35.3305" width="10.115" height="12.3589" fill="#82F3F9" stroke="#073572"/>
<rect x="86.9916" y="35.3305" width="10.115" height="12.3589" fill="#82F3F9" stroke="#073572"/>
<rect x="105.252" y="35.3305" width="10.115" height="12.3589" fill="#82F3F9" stroke="#073572"/>
</svg>
