<svg viewBox="0 0 128 92" preserveAspectRatio="xMaxyMax meet" fill="none" xmlns="http://www.w3.org/2000/svg">
<rect x="3.33118" y="1.23462" width="120.945" height="90.1222" fill="#064A9B" stroke="#073572"/>
<path d="M1.06677 33.6633L3.14633 1.19028H124.56L127.12 33.6633H1.06677Z" fill="#6D3783" stroke="#073572"/>
<path d="M7.94115 1.23462V32.9568C6.50281 31.9665 5.0574 31.7548 3.78631 31.952C2.82462 32.1011 1.9765 32.4815 1.3133 32.9116L3.2303 1.23462H7.94115ZM8.94115 32.82V1.23462H14.2653V32.787C13.1485 31.8737 11.9942 31.6644 10.943 31.8724C10.171 32.0252 9.48737 32.3965 8.94115 32.82ZM15.2653 32.7888V1.23462H20.3786V32.8579C19.2166 31.9633 18.0706 31.7538 17.0496 31.9555C16.3553 32.0927 15.7509 32.4139 15.2653 32.7888ZM21.3786 32.8569V1.23462L26.7027 1.23462V32.8028C25.6027 31.9255 24.4573 31.7283 23.4135 31.9272C22.6317 32.0761 21.9352 32.4414 21.3786 32.8569ZM27.7027 32.7677V1.23462H33.0268V32.8396C31.8208 31.884 30.6297 31.6592 29.5685 31.8727C28.84 32.0193 28.2076 32.3657 27.7027 32.7677ZM34.0268 32.7736V1.23462H39.1401V32.8184C38.0029 31.9069 36.865 31.6921 35.8415 31.9007C35.1369 32.0443 34.5213 32.3817 34.0268 32.7736ZM40.1401 32.8343V1.23462L45.3588 1.23462V32.8884C44.1818 32.0168 43.0194 31.8171 41.9875 32.01C41.2695 32.1442 40.6424 32.4631 40.1401 32.8343ZM46.3588 32.9406V1.23462H51.6829V32.818C50.6436 32.0261 49.5283 31.8577 48.5052 32.0366C47.6904 32.1792 46.9503 32.5378 46.3588 32.9406ZM52.6829 32.7863V1.23462H57.7962V32.8602C56.6301 31.9637 55.4823 31.7536 54.461 31.9555C53.7688 32.0924 53.1667 32.4124 52.6829 32.7863ZM58.7962 32.768V1.23462H63.9095V32.8237C62.7633 31.908 61.6217 31.6916 60.5972 31.9007C59.897 32.0436 59.2866 32.3785 58.7962 32.768ZM64.9095 32.6842V1.23462H70.2336V32.667C69.1895 31.709 68.0727 31.4288 67.0179 31.6187C66.2121 31.7637 65.4908 32.1751 64.9095 32.6842ZM71.2336 32.7808V1.23462H76.3469V32.6934C75.9887 32.3782 75.6198 32.1444 75.2436 31.9839C74.5381 31.6828 73.8404 31.6539 73.1995 31.7908C72.4464 31.9517 71.7741 32.3397 71.2336 32.7808ZM77.3469 32.7004V1.23462H82.671V32.7157C82.251 32.34 81.8248 32.0665 81.3963 31.8836C80.6545 31.567 79.9336 31.5343 79.2761 31.681C78.5257 31.8484 77.8702 32.2453 77.3469 32.7004ZM83.671 32.5899V1.23462H88.9951V32.6028C88.5844 32.1944 88.1663 31.8946 87.7435 31.6921C86.9942 31.3332 86.2607 31.2948 85.5915 31.4622C84.8424 31.6495 84.1908 32.0884 83.671 32.5899ZM89.9951 32.5058V1.23462H95.1084V32.6271C94.6831 32.2066 94.256 31.8992 93.8289 31.6928C93.0874 31.3345 92.3705 31.2932 91.7203 31.4636C91.0423 31.6414 90.4611 32.0412 89.9951 32.5058ZM96.1084 32.4975V1.23462H101.327V32.552C100.918 32.1248 100.503 31.8103 100.084 31.5971C99.3366 31.2169 98.6052 31.1742 97.939 31.3537C97.222 31.5468 96.6032 31.9892 96.1084 32.4975ZM102.327 32.5314V1.23462H107.651V32.3319C107.315 31.9407 106.964 31.6438 106.599 31.4339C105.861 31.0093 105.11 30.9666 104.418 31.1611C103.614 31.3869 102.899 31.9276 102.327 32.5314ZM108.651 32.5468V1.23462H113.765V32.3712C113.442 32.0069 113.105 31.7294 112.756 31.5322C112.037 31.1264 111.308 31.0854 110.638 31.2715C109.875 31.4831 109.197 31.9837 108.651 32.5468ZM114.765 32.6531V1.23462H119.878V32.4669C119.558 32.133 119.224 31.8792 118.877 31.6993C118.167 31.3306 117.45 31.2954 116.788 31.4625C116.015 31.6577 115.322 32.1266 114.765 32.6531ZM120.878 32.7656V1.23462H124.591L126.837 32.582C126.42 32.2132 125.991 31.9421 125.555 31.7577C124.757 31.42 123.969 31.3876 123.243 31.5413C122.328 31.7352 121.515 32.2233 120.878 32.7656Z" fill="#B03A9A" stroke="#073572"/>
<rect x="14.4779" y="49.9649" width="9.49139" height="15.554" fill="#D9D9D9" stroke="#073572"/>
<rect x="23.8667" y="49.9649" width="9.49139" height="15.554" fill="#D9D9D9" stroke="#073572"/>
<path d="M19.8814 44.409C15.1174 44.3599 14.2948 48.1539 14.4789 50.057H33.5718C33.6209 45.5386 29.8678 44.409 27.9851 44.409C27.2689 44.4294 24.6454 44.4581 19.8814 44.409Z" fill="#1C3C75" stroke="#073572"/>
<rect x="55.5405" y="49.9649" width="9.49139" height="15.554" fill="#D9D9D9" stroke="#073572"/>
<rect x="64.9292" y="49.9649" width="9.49139" height="15.554" fill="#D9D9D9" stroke="#073572"/>
<path d="M60.944 44.409C56.18 44.3599 55.3573 48.1539 55.5415 50.057H74.6343C74.6834 45.5386 70.9303 44.409 69.0477 44.409C68.3315 44.4294 65.708 44.4581 60.944 44.409Z" fill="#1C3C75" stroke="#073572"/>
<rect x="94.5897" y="49.9649" width="9.49139" height="15.554" fill="#D9D9D9" stroke="#073572"/>
<rect x="103.978" y="49.9649" width="9.49139" height="15.554" fill="#D9D9D9" stroke="#073572"/>
<path d="M99.9932 44.409C95.2292 44.3599 94.4066 48.1539 94.5908 50.057H113.684C113.733 45.5386 109.98 44.409 108.097 44.409C107.381 44.4294 104.757 44.4581 99.9932 44.409Z" fill="#1C3C75" stroke="#073572"/>
<circle cx="15.9595" cy="49.0481" r="5.66565" fill="#FE0779" stroke="#073572"/>
<circle cx="73.7362" cy="55.2137" r="5.66565" fill="#FE0779" stroke="#073572"/>
<circle cx="108.675" cy="46.2957" r="5.66565" fill="#FE0779" stroke="#073572"/>
<path d="M4.69024 80.9096L4.69068 80.9096L121.687 80.705C121.687 80.705 121.687 80.705 121.687 80.705C122.668 80.705 123.542 81.0303 124.167 81.5195C124.795 82.0106 125.153 82.6503 125.153 83.2794V91.6068H124.072V83.2794C124.072 82.7634 123.679 82.3963 123.271 82.1742C122.852 81.9464 122.335 81.8219 121.919 81.8219C102.799 81.8219 74.0081 81.8525 49.7719 81.8832C34.1754 81.9029 20.4654 81.9226 12.4328 81.9342C7.98303 81.9406 5.27554 81.9445 4.95487 81.9445C4.18091 81.9445 3.51215 82.0723 3.02709 82.2881C2.56252 82.4948 2.17721 82.828 2.17721 83.2794V91.6068H1.19141V83.2794C1.19141 82.7876 1.40761 82.2017 1.94497 81.7354C2.48145 81.2698 3.35553 80.9096 4.69024 80.9096Z" fill="#A5B9DE" stroke="#073572" stroke-width="0.5"/>
<rect x="4.20007" y="82.1109" width="1.33486" height="9.49599" fill="#A5B9DE" stroke="#073572" stroke-width="0.5"/>
<rect x="7.20276" y="82.1109" width="1.33148" height="9.49599" fill="#A5B9DE" stroke="#073572" stroke-width="0.5"/>
<rect x="10.2024" y="82.1109" width="1.33486" height="9.49599" fill="#A5B9DE" stroke="#073572" stroke-width="0.5"/>
<rect x="13.2051" y="82.1109" width="1.33148" height="9.49599" fill="#A5B9DE" stroke="#073572" stroke-width="0.5"/>
<rect x="16.2047" y="82.1109" width="1.33486" height="9.49599" fill="#A5B9DE" stroke="#073572" stroke-width="0.5"/>
<rect x="19.2074" y="82.1109" width="1.33148" height="9.49599" fill="#A5B9DE" stroke="#073572" stroke-width="0.5"/>
<rect x="22.207" y="82.1109" width="1.33486" height="9.49599" fill="#A5B9DE" stroke="#073572" stroke-width="0.5"/>
<rect x="25.2097" y="82.1109" width="1.33148" height="9.49599" fill="#A5B9DE" stroke="#073572" stroke-width="0.5"/>
<rect x="28.2095" y="82.1109" width="1.33486" height="9.49599" fill="#A5B9DE" stroke="#073572" stroke-width="0.5"/>
<rect x="31.2122" y="82.1109" width="1.33148" height="9.49599" fill="#A5B9DE" stroke="#073572" stroke-width="0.5"/>
<rect x="34.2118" y="82.1109" width="1.33486" height="9.49599" fill="#A5B9DE" stroke="#073572" stroke-width="0.5"/>
<rect x="37.2145" y="82.1109" width="1.33148" height="9.49599" fill="#A5B9DE" stroke="#073572" stroke-width="0.5"/>
<rect x="40.2141" y="82.1109" width="1.33486" height="9.49599" fill="#A5B9DE" stroke="#073572" stroke-width="0.5"/>
<rect x="43.2168" y="82.1109" width="1.33148" height="9.49599" fill="#A5B9DE" stroke="#073572" stroke-width="0.5"/>
<rect x="46.2164" y="82.1109" width="1.33486" height="9.49599" fill="#A5B9DE" stroke="#073572" stroke-width="0.5"/>
<rect x="49.2192" y="82.1109" width="1.33148" height="9.49599" fill="#A5B9DE" stroke="#073572" stroke-width="0.5"/>
<rect x="52.2188" y="82.1109" width="1.33486" height="9.49599" fill="#A5B9DE" stroke="#073572" stroke-width="0.5"/>
<rect x="55.2216" y="82.1109" width="1.33148" height="9.49599" fill="#A5B9DE" stroke="#073572" stroke-width="0.5"/>
<rect x="58.2211" y="82.1109" width="1.33486" height="9.49599" fill="#A5B9DE" stroke="#073572" stroke-width="0.5"/>
<rect x="61.2238" y="82.1109" width="1.33148" height="9.49599" fill="#A5B9DE" stroke="#073572" stroke-width="0.5"/>
<rect x="64.2235" y="82.1109" width="1.33486" height="9.49599" fill="#A5B9DE" stroke="#073572" stroke-width="0.5"/>
<rect x="67.2263" y="82.1109" width="1.33148" height="9.49599" fill="#A5B9DE" stroke="#073572" stroke-width="0.5"/>
<rect x="70.2258" y="82.1109" width="1.33486" height="9.49599" fill="#A5B9DE" stroke="#073572" stroke-width="0.5"/>
<rect x="73.2285" y="82.1109" width="1.33148" height="9.49599" fill="#A5B9DE" stroke="#073572" stroke-width="0.5"/>
<rect x="76.2282" y="82.1109" width="1.33486" height="9.49599" fill="#A5B9DE" stroke="#073572" stroke-width="0.5"/>
<rect x="79.2308" y="82.1109" width="1.33148" height="9.49599" fill="#A5B9DE" stroke="#073572" stroke-width="0.5"/>
<rect x="82.2305" y="82.1109" width="1.33486" height="9.49599" fill="#A5B9DE" stroke="#073572" stroke-width="0.5"/>
<rect x="85.2333" y="82.1109" width="1.33148" height="9.49599" fill="#A5B9DE" stroke="#073572" stroke-width="0.5"/>
<rect x="88.2329" y="82.1109" width="1.33486" height="9.49599" fill="#A5B9DE" stroke="#073572" stroke-width="0.5"/>
<rect x="94.2352" y="82.1109" width="1.33486" height="9.49599" fill="#A5B9DE" stroke="#073572" stroke-width="0.5"/>
<rect x="97.238" y="82.1109" width="1.33148" height="9.49599" fill="#A5B9DE" stroke="#073572" stroke-width="0.5"/>
<rect x="100.205" y="82.1109" width="1.33486" height="9.49599" fill="#A5B9DE" stroke="#073572" stroke-width="0.5"/>
<rect x="103.208" y="82.1109" width="1.33148" height="9.49599" fill="#A5B9DE" stroke="#073572" stroke-width="0.5"/>
<rect x="106.208" y="82.1109" width="1.33486" height="9.49599" fill="#A5B9DE" stroke="#073572" stroke-width="0.5"/>
<rect x="91.2357" y="82.1109" width="1.33148" height="9.49599" fill="#A5B9DE" stroke="#073572" stroke-width="0.5"/>
<rect x="109.21" y="82.1109" width="1.33148" height="9.49599" fill="#A5B9DE" stroke="#073572" stroke-width="0.5"/>
<rect x="112.21" y="82.1109" width="1.33486" height="9.49599" fill="#A5B9DE" stroke="#073572" stroke-width="0.5"/>
<rect x="115.213" y="82.1109" width="1.33148" height="9.49599" fill="#A5B9DE" stroke="#073572" stroke-width="0.5"/>
<rect x="118.212" y="82.1109" width="1.33486" height="9.49599" fill="#A5B9DE" stroke="#073572" stroke-width="0.5"/>
<path d="M121.215 82.1125C121.937 82.1222 122.34 82.174 122.547 82.2301V82.2971V91.6069H121.215V82.1125Z" fill="#A5B9DE" stroke="#073572" stroke-width="0.5"/>
<path d="M15.864 43.1416V33.6859M73.5432 49.6029V33.6859M108.687 40.4625V33.6859" stroke="#073572"/>
</svg>
