<svg viewBox="0 0 126 88" preserveAspectRatio="xMidyMid meet" fill="none" xmlns="http://www.w3.org/2000/svg">
<rect x="4.35754" y="37.8695" width="117.175" height="49.3528" fill="#3399D6" stroke="#073572"/>
<path d="M4.55334 73.2968H121.701" stroke="#073572"/>
<path d="M4.88513 75.391H121.519" stroke="#073572"/>
<path d="M4.39991 25.5658L6.41008 0.875542H119.48L121.49 25.5658H4.39991Z" fill="#17C3B2" stroke="#073572"/>
<rect x="4.35754" y="25.5381" width="117.175" height="12.3589" fill="#FFE2D3" stroke="#073572"/>
<path d="M4.88513 31.7176H121.005M23.3821 26.0658V37.3695M11.0508 26.0658V37.3695M17.2164 26.0658V37.3695M41.8791 26.0658V37.3695M29.5477 26.0658V37.3695M35.7134 26.0658V37.3695M60.376 26.0658V37.3695M48.0447 26.0658V37.3695M54.2104 26.0658V37.3695M78.3592 26.0658V37.3695M66.0279 26.0658V37.3695M72.1935 26.0658V37.3695M96.8561 26.0658V37.3695M84.5248 26.0658V37.3695M90.6905 26.0658V37.3695M115.353 26.0658V37.3695M103.022 26.0658V37.3695M109.187 26.0658V37.3695" stroke="#073572"/>
<path d="M4.88513 31.7176H121.005M23.3821 26.0658V37.3695M11.0508 26.0658V37.3695M17.2164 26.0658V37.3695M41.8791 26.0658V37.3695M29.5477 26.0658V37.3695M35.7134 26.0658V37.3695M60.376 26.0658V37.3695M48.0447 26.0658V37.3695M54.2104 26.0658V37.3695M78.3592 26.0658V37.3695M66.0279 26.0658V37.3695M72.1935 26.0658V37.3695M96.8561 26.0658V37.3695M84.5248 26.0658V37.3695M90.6905 26.0658V37.3695M115.353 26.0658V37.3695M103.022 26.0658V37.3695M109.187 26.0658V37.3695" stroke="#073572"/>
<path d="M11.0507 0.375542V25.552M6.94031 0.375542V25.552M8.99553 0.375542V25.552M17.2164 0.375542V25.552M13.106 0.375542V25.552M15.1612 0.375542V25.552" stroke="#073572"/>
<path d="M23.382 0.375557V25.552M19.2716 0.375557V25.552M21.3268 0.375557V25.552M29.5477 0.375557V25.552M25.4373 0.375557V25.552M27.4925 0.375557V25.552" stroke="#073572"/>
<path d="M35.7133 0.375557V25.552M31.6029 0.375557V25.552M33.6581 0.375557V25.552M41.879 0.375557V25.552M37.7686 0.375557V25.552M39.8238 0.375557V25.552" stroke="#073572"/>
<path d="M48.0446 0.375557V25.552M43.9342 0.375557V25.552M45.9894 0.375557V25.552M54.2103 0.375557V25.552M50.0999 0.375557V25.552M52.1551 0.375557V25.552" stroke="#073572"/>
<path d="M60.3759 0.375557V25.552M56.2655 0.375557V25.552M58.3207 0.375557V25.552M66.5416 0.375557V25.552M62.4312 0.375557V25.552M64.4864 0.375557V25.552" stroke="#073572"/>
<path d="M72.7072 0.375557V25.552M68.5968 0.375557V25.552M70.652 0.375557V25.552M78.8729 0.375557V25.552M74.7625 0.375557V25.552M76.8177 0.375557V25.552" stroke="#073572"/>
<path d="M85.0386 0.375557V25.552M80.9282 0.375557V25.552M82.9834 0.375557V25.552M91.2043 0.375557V25.552M87.0938 0.375557V25.552M89.149 0.375557V25.552" stroke="#073572"/>
<path d="M97.3699 0.375557V25.552M93.2595 0.375557V25.552M95.3147 0.375557V25.552M103.536 0.375557V25.552M99.4251 0.375557V25.552M101.48 0.375557V25.552" stroke="#073572"/>
<path d="M109.701 0.375557V25.552M105.591 0.375557V25.552M107.646 0.375557V25.552M119.977 7.44262V25.552M111.756 0.375557V25.552M113.812 0.375557V25.552M115.867 0.375557V25.552M117.922 0.375557V25.552" stroke="#073572"/>
<rect x="11.037" y="40.9523" width="6.19326" height="12.3589" fill="#D9D9D9" stroke="#073572"/>
<rect x="23.3683" y="40.9523" width="6.19326" height="12.3589" fill="#D9D9D9" stroke="#073572"/>
<rect x="35.6996" y="40.9523" width="6.19326" height="12.3589" fill="#D9D9D9" stroke="#073572"/>
<rect x="48.0309" y="40.9523" width="6.19326" height="12.3589" fill="#D9D9D9" stroke="#073572"/>
<rect x="60.3622" y="40.9523" width="6.19326" height="12.3589" fill="#D9D9D9" stroke="#073572"/>
<rect x="72.1797" y="40.9523" width="6.19326" height="12.3589" fill="#D9D9D9" stroke="#073572"/>
<rect x="84.511" y="40.9523" width="6.19326" height="12.3589" fill="#D9D9D9" stroke="#073572"/>
<rect x="96.8423" y="40.9523" width="6.19326" height="12.3589" fill="#D9D9D9" stroke="#073572"/>
<rect x="109.174" y="40.9523" width="6.19326" height="12.3589" fill="#D9D9D9" stroke="#073572"/>
<rect x="11.037" y="58.4216" width="6.19326" height="12.3589" fill="#D9D9D9" stroke="#073572"/>
<rect x="23.3683" y="58.4216" width="6.19326" height="12.3589" fill="#D9D9D9" stroke="#073572"/>
<rect x="35.6996" y="58.4216" width="6.19326" height="12.3589" fill="#D9D9D9" stroke="#073572"/>
<rect x="48.0309" y="58.4216" width="6.19326" height="12.3589" fill="#D9D9D9" stroke="#073572"/>
<rect x="60.3622" y="58.4216" width="6.19326" height="12.3589" fill="#D9D9D9" stroke="#073572"/>
<rect x="72.1797" y="58.4216" width="6.19326" height="12.3589" fill="#D9D9D9" stroke="#073572"/>
<rect x="84.511" y="58.4216" width="6.19326" height="12.3589" fill="#D9D9D9" stroke="#073572"/>
<rect x="96.8423" y="58.4216" width="6.19326" height="12.3589" fill="#D9D9D9" stroke="#073572"/>
<rect x="109.174" y="58.4216" width="6.19326" height="12.3589" fill="#D9D9D9" stroke="#073572"/>
<circle cx="20.2993" cy="31.2038" r="5.66565" fill="#FE0779" stroke="#073572"/>
<circle cx="106.618" cy="31.2038" r="5.66565" fill="#FE0779" stroke="#073572"/>
<circle cx="65.514" cy="31.2038" r="5.66565" fill="#FE0779" stroke="#073572"/>
<path d="M4.46319 76.58L4.46363 76.58L121.46 76.3754C121.46 76.3754 121.46 76.3754 121.46 76.3754C122.441 76.3755 123.315 76.7008 123.94 77.1899C124.568 77.681 124.926 78.3207 124.926 78.9499V87.2773H123.845V78.9499C123.845 78.4339 123.452 78.0667 123.044 77.8446C122.625 77.6168 122.108 77.4923 121.692 77.4923C102.572 77.4923 73.7811 77.523 49.5448 77.5536C33.9483 77.5733 20.2383 77.5931 12.2058 77.6046C7.75598 77.611 5.04849 77.6149 4.72782 77.6149C3.95386 77.6149 3.2851 77.7427 2.80004 77.9586C2.33547 78.1653 1.95016 78.4984 1.95016 78.9499V87.2773H0.964355V78.9499C0.964355 78.4581 1.18056 77.8721 1.71792 77.4058C2.2544 76.9403 3.12848 76.58 4.46319 76.58Z" fill="#A5B9DE" stroke="#073572" stroke-width="0.5"/>
<rect x="3.97302" y="77.7813" width="1.33486" height="9.49599" fill="#A5B9DE" stroke="#073572" stroke-width="0.5"/>
<rect x="6.97571" y="77.7813" width="1.33148" height="9.49599" fill="#A5B9DE" stroke="#073572" stroke-width="0.5"/>
<rect x="9.97534" y="77.7813" width="1.33486" height="9.49599" fill="#A5B9DE" stroke="#073572" stroke-width="0.5"/>
<rect x="12.978" y="77.7813" width="1.33148" height="9.49599" fill="#A5B9DE" stroke="#073572" stroke-width="0.5"/>
<rect x="15.9777" y="77.7813" width="1.33486" height="9.49599" fill="#A5B9DE" stroke="#073572" stroke-width="0.5"/>
<rect x="18.9803" y="77.7813" width="1.33148" height="9.49599" fill="#A5B9DE" stroke="#073572" stroke-width="0.5"/>
<rect x="21.98" y="77.7813" width="1.33486" height="9.49599" fill="#A5B9DE" stroke="#073572" stroke-width="0.5"/>
<rect x="24.9827" y="77.7813" width="1.33148" height="9.49599" fill="#A5B9DE" stroke="#073572" stroke-width="0.5"/>
<rect x="27.9824" y="77.7813" width="1.33486" height="9.49599" fill="#A5B9DE" stroke="#073572" stroke-width="0.5"/>
<rect x="30.9851" y="77.7813" width="1.33148" height="9.49599" fill="#A5B9DE" stroke="#073572" stroke-width="0.5"/>
<rect x="33.9847" y="77.7813" width="1.33486" height="9.49599" fill="#A5B9DE" stroke="#073572" stroke-width="0.5"/>
<rect x="36.9874" y="77.7813" width="1.33148" height="9.49599" fill="#A5B9DE" stroke="#073572" stroke-width="0.5"/>
<rect x="39.9871" y="77.7813" width="1.33486" height="9.49599" fill="#A5B9DE" stroke="#073572" stroke-width="0.5"/>
<rect x="42.9897" y="77.7813" width="1.33148" height="9.49599" fill="#A5B9DE" stroke="#073572" stroke-width="0.5"/>
<rect x="45.9894" y="77.7813" width="1.33486" height="9.49599" fill="#A5B9DE" stroke="#073572" stroke-width="0.5"/>
<rect x="48.9921" y="77.7813" width="1.33148" height="9.49599" fill="#A5B9DE" stroke="#073572" stroke-width="0.5"/>
<rect x="51.9918" y="77.7813" width="1.33486" height="9.49599" fill="#A5B9DE" stroke="#073572" stroke-width="0.5"/>
<rect x="54.9945" y="77.7813" width="1.33148" height="9.49599" fill="#A5B9DE" stroke="#073572" stroke-width="0.5"/>
<rect x="57.994" y="77.7813" width="1.33486" height="9.49599" fill="#A5B9DE" stroke="#073572" stroke-width="0.5"/>
<rect x="60.9968" y="77.7813" width="1.33148" height="9.49599" fill="#A5B9DE" stroke="#073572" stroke-width="0.5"/>
<rect x="63.9965" y="77.7813" width="1.33486" height="9.49599" fill="#A5B9DE" stroke="#073572" stroke-width="0.5"/>
<rect x="66.9992" y="77.7813" width="1.33148" height="9.49599" fill="#A5B9DE" stroke="#073572" stroke-width="0.5"/>
<rect x="69.9988" y="77.7813" width="1.33486" height="9.49599" fill="#A5B9DE" stroke="#073572" stroke-width="0.5"/>
<rect x="73.0015" y="77.7813" width="1.33148" height="9.49599" fill="#A5B9DE" stroke="#073572" stroke-width="0.5"/>
<rect x="76.0012" y="77.7813" width="1.33486" height="9.49599" fill="#A5B9DE" stroke="#073572" stroke-width="0.5"/>
<rect x="79.0038" y="77.7813" width="1.33148" height="9.49599" fill="#A5B9DE" stroke="#073572" stroke-width="0.5"/>
<rect x="82.0035" y="77.7813" width="1.33486" height="9.49599" fill="#A5B9DE" stroke="#073572" stroke-width="0.5"/>
<rect x="85.0063" y="77.7813" width="1.33148" height="9.49599" fill="#A5B9DE" stroke="#073572" stroke-width="0.5"/>
<rect x="88.0059" y="77.7813" width="1.33486" height="9.49599" fill="#A5B9DE" stroke="#073572" stroke-width="0.5"/>
<rect x="94.0081" y="77.7813" width="1.33486" height="9.49599" fill="#A5B9DE" stroke="#073572" stroke-width="0.5"/>
<rect x="97.0109" y="77.7813" width="1.33148" height="9.49599" fill="#A5B9DE" stroke="#073572" stroke-width="0.5"/>
<rect x="99.9782" y="77.7813" width="1.33486" height="9.49599" fill="#A5B9DE" stroke="#073572" stroke-width="0.5"/>
<rect x="102.981" y="77.7813" width="1.33148" height="9.49599" fill="#A5B9DE" stroke="#073572" stroke-width="0.5"/>
<rect x="105.981" y="77.7813" width="1.33486" height="9.49599" fill="#A5B9DE" stroke="#073572" stroke-width="0.5"/>
<rect x="91.0086" y="77.7813" width="1.33148" height="9.49599" fill="#A5B9DE" stroke="#073572" stroke-width="0.5"/>
<rect x="108.983" y="77.7813" width="1.33148" height="9.49599" fill="#A5B9DE" stroke="#073572" stroke-width="0.5"/>
<rect x="111.983" y="77.7813" width="1.33486" height="9.49599" fill="#A5B9DE" stroke="#073572" stroke-width="0.5"/>
<rect x="114.986" y="77.7813" width="1.33148" height="9.49599" fill="#A5B9DE" stroke="#073572" stroke-width="0.5"/>
<rect x="117.985" y="77.7813" width="1.33486" height="9.49599" fill="#A5B9DE" stroke="#073572" stroke-width="0.5"/>
<path d="M120.988 77.7829C121.71 77.7926 122.113 77.8444 122.32 77.9005V77.9675V87.2773H120.988V77.7829Z" fill="#A5B9DE" stroke="#073572" stroke-width="0.5"/>
</svg>
